<?xml version="1.0" encoding="utf-8"?>
<!-- Generator: Adobe Illustrator 17.0.0, SVG Export Plug-In . SVG Version: 6.00 Build 0)  -->
<!DOCTYPE svg PUBLIC "-//W3C//DTD SVG 1.1//EN" "http://www.w3.org/Graphics/SVG/1.1/DTD/svg11.dtd">
<svg version="1.1" id="圖層_1" xmlns="http://www.w3.org/2000/svg" xmlns:xlink="http://www.w3.org/1999/xlink" x="0px" y="0px"
	 width="170px" height="20px" viewBox="0 0 170 20" enable-background="new 0 0 170 20" xml:space="preserve">
<g>
	<path fill="#201512" d="M8.044,18.385h2.109L5.207,9.561l0.226-0.019c0.586-0.049,1.14-0.17,1.646-0.36
		c0.501-0.19,0.941-0.456,1.305-0.791C8.75,8.059,9.04,7.638,9.25,7.142c0.21-0.5,0.317-1.091,0.317-1.758
		c0-0.521-0.076-0.981-0.225-1.367c-0.145-0.381-0.346-0.714-0.6-0.992C8.484,2.75,8.184,2.518,7.848,2.335
		C7.509,2.15,7.136,2.003,6.742,1.897c-0.398-0.106-0.812-0.179-1.234-0.22C5.08,1.636,4.657,1.615,4.242,1.615H0.047v16.77h1.878
		V9.729h1.23L8.044,18.385z M1.925,9.02V4.158c0-0.367,0.018-0.662,0.048-0.888c0.038-0.259,0.122-0.452,0.255-0.594
		C2.357,2.533,2.544,2.437,2.78,2.389c0.5-0.098,1.453-0.091,2.269,0.076C5.517,2.56,5.94,2.727,6.308,2.96
		C6.68,3.193,6.988,3.512,7.222,3.909c0.23,0.399,0.346,0.895,0.346,1.475c0,0.572-0.079,1.069-0.234,1.478
		c-0.16,0.411-0.379,0.756-0.65,1.027c-0.267,0.27-0.588,0.485-0.957,0.639c-0.362,0.15-0.748,0.263-1.146,0.333
		c-0.4,0.072-0.819,0.118-1.247,0.134C2.905,9.011,2.487,9.02,2.071,9.02H1.925z"/>
	<path fill="#201512" d="M26.986,18.385h8.623l-0.119-0.709h-5.135c-0.138,0-0.286-0.005-0.443-0.013
		c-0.168-0.009-0.326-0.042-0.469-0.099c-0.181-0.072-0.315-0.214-0.401-0.422c-0.078-0.182-0.131-0.387-0.155-0.61
		c-0.024-0.216-0.036-0.43-0.031-0.644l0.007-0.511V9.954h5.592v-0.71h-5.592V3.695c0-0.298,0.038-0.54,0.118-0.735
		c0.086-0.213,0.24-0.375,0.458-0.484c0.212-0.103,0.512-0.153,0.916-0.153h5.135l0.119-0.709h-8.623V18.385z"/>
	<path fill="#201512" d="M161.328,18.385h8.625l-0.119-0.709h-5.135c-0.139,0-0.286-0.005-0.443-0.013
		c-0.168-0.009-0.326-0.042-0.469-0.099c-0.181-0.072-0.315-0.214-0.401-0.422c-0.078-0.182-0.131-0.387-0.155-0.61
		c-0.024-0.216-0.036-0.43-0.031-0.644l0.007-0.511V9.954h5.592v-0.71h-5.592V3.695c0-0.297,0.038-0.537,0.116-0.735
		c0.086-0.213,0.24-0.377,0.459-0.484c0.211-0.103,0.51-0.153,0.916-0.153h5.135l0.119-0.709h-8.625V18.385z"/>
	<path fill="#201512" d="M53.834,3.586c-0.506,0.706-0.867,1.561-1.073,2.542c-0.211,0.989-0.318,2.102-0.318,3.31
		c0,0.815,0.057,1.613,0.17,2.373c0.113,0.772,0.293,1.506,0.53,2.183c0.235,0.676,0.546,1.306,0.92,1.875
		c0.371,0.563,0.823,1.056,1.345,1.466c0.519,0.408,1.125,0.731,1.803,0.959c1.258,0.422,2.921,0.406,4.513,0.199
		c0.69-0.09,1.371-0.259,2.024-0.5v-0.782c-0.474,0.193-0.934,0.333-1.369,0.418c-1.178,0.232-2.73,0.196-3.813-0.187
		c-0.632-0.224-1.181-0.536-1.633-0.927c-0.457-0.393-0.841-0.865-1.144-1.401c-0.305-0.536-0.55-1.127-0.727-1.757
		c-0.182-0.629-0.312-1.302-0.386-1.999c-0.077-0.694-0.116-1.406-0.116-2.114c0-0.513,0.019-1.043,0.054-1.598
		c0.038-0.565,0.112-1.111,0.218-1.62c0.107-0.522,0.26-1.027,0.453-1.5c0.198-0.48,0.464-0.907,0.789-1.268
		c0.332-0.364,0.739-0.655,1.208-0.866c0.47-0.212,1.035-0.319,1.681-0.319c0.104,0,2.473,0.032,4.637,1.214l-0.07-1.235
		c-0.727-0.203-1.47-0.369-2.209-0.494c-0.766-0.128-1.551-0.193-2.336-0.193c-1.252,0-2.31,0.197-3.146,0.586
		C55.005,2.339,54.332,2.889,53.834,3.586z"/>
	<path fill="#201512" d="M80.581,1.615v16.77h8.548l0.036-0.709h-4.89c-0.367,0-0.66-0.014-0.881-0.04
		c-0.245-0.027-0.443-0.104-0.587-0.228c-0.147-0.131-0.242-0.322-0.284-0.566c-0.042-0.219-0.062-0.522-0.062-0.925V1.615H80.581z"
		/>
	<g>
		<polygon fill="#201512" points="111.737,18.582 111.737,18.582 111.737,18.582 		"/>
		<path fill="#201512" d="M114.445,18.141c0.439-0.149,2.691-1.079,3.064-4.489c0.031-0.389,0.059-0.789,0.059-1.235v-11h-1.878
			v10.99c0,0.681-0.051,1.35-0.153,1.986c-0.1,0.636-0.297,1.208-0.584,1.699c-0.291,0.496-0.695,0.897-1.199,1.19
			c-0.507,0.296-1.171,0.446-1.972,0.446c-0.801,0-1.465-0.15-1.973-0.446c-0.505-0.294-0.908-0.693-1.197-1.19
			c-0.287-0.488-0.484-1.061-0.586-1.699c-0.1-0.64-0.151-1.308-0.151-1.986V1.417h-1.878v11c0,0.445,0.028,0.846,0.061,1.239
			c0.373,3.403,2.622,4.337,3.07,4.488c0.703,0.195,1.569,0.294,2.565,0.294l0.141-0.001l0.04,0.147v-0.146
			C112.87,18.437,113.735,18.338,114.445,18.141z"/>
	</g>
	<path fill="#201512" d="M142.636,17.591c0.371-0.235,0.698-0.528,0.976-0.869c0.272-0.337,0.49-0.735,0.647-1.186
		c0.157-0.449,0.237-0.967,0.237-1.54c0-0.597-0.079-1.124-0.237-1.563c-0.157-0.444-0.375-0.843-0.648-1.184
		c-0.281-0.35-0.617-0.667-0.996-0.941l-0.3-0.199c-0.314-0.218-0.631-0.436-0.98-0.652c-0.29-0.182-0.579-0.344-0.869-0.487
		c-0.295-0.147-0.593-0.298-0.899-0.457c-0.331-0.168-0.689-0.351-1.068-0.551c-0.383-0.204-0.747-0.446-1.079-0.723
		c-0.336-0.279-0.618-0.601-0.84-0.96c-0.228-0.365-0.344-0.792-0.344-1.27c0-0.46,0.093-0.881,0.277-1.252
		c0.167-0.332,0.395-0.626,0.679-0.874c0.055-0.048,0.112-0.091,0.168-0.132c0.065-0.05,0.138-0.097,0.212-0.143
		c0.244-0.145,0.52-0.259,0.845-0.351c0.16-0.036,0.705-0.153,1.271-0.153l0.322,0.017c0.893,0.084,2.531,0.344,4.061,1.179
		l-0.069-1.235c-0.728-0.204-1.472-0.369-2.21-0.494c-0.766-0.128-1.551-0.193-2.336-0.193c-0.561,0.026-1.054,0.084-1.502,0.179
		c-0.638,0.134-1.211,0.365-1.707,0.685c-0.494,0.318-0.9,0.751-1.206,1.283c-0.303,0.527-0.457,1.203-0.457,2.009
		c0,0.374,0.028,0.719,0.082,1.027c0.053,0.303,0.141,0.587,0.262,0.844c0.123,0.261,0.283,0.512,0.475,0.745
		c0.197,0.24,0.436,0.475,0.712,0.699c0.35,0.277,0.72,0.53,1.101,0.751l0.689,0.385c0.158,0.09,0.316,0.178,0.475,0.262
		c0.381,0.202,0.805,0.427,1.269,0.677c0.467,0.252,0.915,0.542,1.331,0.863c0.416,0.322,0.774,0.699,1.064,1.121
		c0.294,0.435,0.442,0.934,0.442,1.484c0,0.536-0.106,1.021-0.314,1.442c-0.207,0.416-0.486,0.773-0.83,1.059
		c-0.216,0.181-0.453,0.31-0.657,0.414c-0.416,0.198-0.889,0.339-1.41,0.421c-0.452,0.056-0.799,0.077-1.139,0.077
		c-1.696,0-3.19-0.508-3.716-0.709l-0.021,0.79c0.649,0.261,1.326,0.449,2.013,0.559c0.329,0.052,0.661,0.092,0.994,0.126
		c0.852,0.07,1.738,0.079,2.635-0.051c0.473-0.07,0.936-0.183,1.373-0.337C141.857,18.028,142.267,17.829,142.636,17.591z"/>
</g>
</svg>
