<?xml version="1.0" encoding="utf-8"?>
<!-- Generator: Adobe Illustrator 17.0.0, SVG Export Plug-In . SVG Version: 6.00 Build 0)  -->
<!DOCTYPE svg PUBLIC "-//W3C//DTD SVG 1.1//EN" "http://www.w3.org/Graphics/SVG/1.1/DTD/svg11.dtd">
<svg version="1.1" id="圖層_1" xmlns="http://www.w3.org/2000/svg" xmlns:xlink="http://www.w3.org/1999/xlink" x="0px" y="0px"
	 width="68px" height="40px" viewBox="0 0 68 40" enable-background="new 0 0 68 40" xml:space="preserve">
<g>
	<path fill="#717071" d="M0.32,10.378V0.357h3.028l1.818,6.836l1.798-6.836H10v10.021H8.12V2.49l-1.989,7.889H4.183L2.2,2.49v7.889
		L0.32,10.378L0.32,10.378z"/>
	<path fill="#717071" d="M0.149,12.217H10.17v7.431H8.476v-5.407H6.254v5.031H4.565v-5.031H1.838v5.599H0.149V12.217z"/>
	<path fill="#717071" d="M0.149,21.576H10.17v1.969l-6.692,4.102h6.692v1.88H0.149v-2.03l6.535-4.04H0.149V21.576z"/>
	<path fill="#717071" d="M10.171,31.652v2.023H4.743c-0.861,0-1.419,0.025-1.675,0.075c-0.41,0.086-0.739,0.293-0.988,0.619
		s-0.373,0.771-0.373,1.336c0,0.574,0.117,1.007,0.352,1.299s0.523,0.467,0.865,0.526s0.909,0.089,1.702,0.089h5.544v2.023H4.907
		c-1.203,0-2.053-0.055-2.55-0.164s-0.916-0.31-1.257-0.604s-0.614-0.687-0.817-1.179s-0.304-1.135-0.304-1.928
		c0-0.957,0.11-1.683,0.332-2.177s0.508-0.885,0.861-1.172s0.724-0.476,1.111-0.567c0.574-0.132,1.422-0.198,2.543-0.198
		L10.171,31.652L10.171,31.652z"/>
</g>
<g>
	<rect x="32.531" y="7.819" fill="#B4B3B3" width="26.618" height="3.043"/>
	<rect x="59.149" y="7.819" fill="#898989" width="8.873" height="3.043"/>
	<rect x="32.531" y="14.56" fill="#B4B3B3" width="35.491" height="3.043"/>
	<rect x="32.531" y="28.977" fill="#B4B3B3" width="35.491" height="3.043"/>
	<rect x="32.531" y="21.679" fill="#B4B3B3" width="35.491" height="3.043"/>
	<rect x="50.276" y="14.56" fill="#898989" width="17.745" height="3.043"/>
	<rect x="41.634" y="21.679" fill="#898989" width="26.387" height="3.043"/>
	<rect x="32.53" y="28.977" fill="#898989" width="35.49" height="3.043"/>
</g>
<g>
	<path fill="#231815" d="M0.406,10.378V0.357h3.028l1.818,6.836L7.05,0.357h3.035v10.021h-1.88V2.49l-1.989,7.889l-1.948,0
		L2.285,2.49v7.889H0.406z"/>
	<path fill="#231815" d="M0.235,12.217h10.021v7.431H8.561v-5.407H6.339v5.031H4.651v-5.031H1.923v5.599H0.235V12.217z"/>
	<path fill="#231815" d="M0.235,21.576h10.021v1.969l-6.692,4.102h6.692v1.88H0.235v-2.03l6.535-4.04H0.235V21.576z"/>
	<path fill="#231815" d="M10.256,31.652v2.023H4.828c-0.861,0-1.419,0.025-1.675,0.075c-0.41,0.086-0.739,0.293-0.988,0.619
		s-0.373,0.771-0.373,1.336c0,0.574,0.117,1.007,0.352,1.299s0.523,0.467,0.865,0.526s0.909,0.089,1.702,0.089h5.544v2.023H4.993
		c-1.203,0-2.053-0.055-2.55-0.164s-0.916-0.311-1.258-0.605s-0.614-0.687-0.817-1.179s-0.304-1.135-0.304-1.928
		c0-0.957,0.11-1.683,0.332-2.177s0.508-0.885,0.861-1.172s0.724-0.476,1.111-0.567c0.574-0.132,1.422-0.198,2.543-0.198H10.256z"/>
</g>
<g>
	<rect x="32.531" y="7.819" fill="#888888" width="26.618" height="3.043"/>
	<rect x="59.149" y="7.819" fill="#B2B2B2" width="8.873" height="3.043"/>
	<rect x="32.531" y="14.56" fill="#888888" width="35.491" height="3.043"/>
	<rect x="32.531" y="28.977" fill="#B2B2B2" width="35.491" height="3.043"/>
	<rect x="32.531" y="21.679" fill="#888888" width="35.491" height="3.043"/>
	<rect x="50.276" y="14.56" fill="#B2B2B2" width="17.745" height="3.043"/>
	<rect x="41.635" y="21.679" fill="#B2B2B2" width="26.387" height="3.043"/>
	<rect x="32.531" y="28.977" fill="#B2B2B2" width="35.49" height="3.043"/>
</g>
</svg>
