<?xml version="1.0" encoding="utf-8"?>
<!-- Generator: Adobe Illustrator 17.0.0, SVG Export Plug-In . SVG Version: 6.00 Build 0)  -->
<!DOCTYPE svg PUBLIC "-//W3C//DTD SVG 1.1//EN" "http://www.w3.org/Graphics/SVG/1.1/DTD/svg11.dtd">
<svg version="1.1" id="圖層_1" xmlns="http://www.w3.org/2000/svg" xmlns:xlink="http://www.w3.org/1999/xlink" x="0px" y="0px"
	 width="146px" height="16px" viewBox="0 0 146 16" enable-background="new 0 0 146 16" xml:space="preserve">
<g>
	<g>
		<path fill="#888888" d="M142.331,4.605c0-0.496,0.329-0.615,0.563-0.615h1.428V1.803l-1.965-0.006c-2.182,0-2.68,1.631-2.68,2.676
			V5.93h-1.26v2.254h1.26v6.381h2.653V8.184h1.79l0.232-2.252h-2.022V4.605H142.331z"/>
		<path fill="#888888" d="M41.661,12.062c-1.096,0.189-1.631-0.252-1.65-1.371c-0.008-0.529-0.002-1.06-0.002-1.588
			c0-0.668,0-1.336,0-2.049c0.844,0,1.602,0,2.365,0c0-0.764,0-1.478,0-2.238c-0.77,0-1.492,0-2.281,0c0-1.113,0-2.176,0-3.232
			c-0.717,0-1.367,0-2.012,0c-0.031,0.082-0.062,0.129-0.07,0.182c-0.221,1.48-0.889,2.648-2.312,3.287
			c-0.094,0.043-0.207,0.174-0.209,0.268c-0.02,0.576-0.01,1.15-0.01,1.752c0.539,0,0.994,0,1.533,0
			c0,1.396-0.018,2.725,0.004,4.055c0.021,1.318,0.533,2.406,1.748,3.002c1.312,0.645,2.652,0.557,3.938-0.143
			c0.115-0.06,0.232-0.303,0.199-0.422c-0.152-0.557-0.361-1.096-0.553-1.656C42.084,11.968,41.874,12.025,41.661,12.062z"/>
		<path fill="#888888" d="M110.555,2.215c-0.799-0.535-1.688-0.787-2.641-0.824c-0.551-0.021-1.098,0.025-1.637,0.143
			c-0.617,0.133-1.197,0.355-1.734,0.693c-0.943,0.592-1.619,1.406-2,2.459c-0.139,0.381-0.223,0.773-0.248,1.178
			c-0.014,0.193-0.01,0.385,0.002,0.574c0.019,0.33,0.076,0.656,0.176,0.973c0.102,0.33,0.254,0.639,0.469,0.914
			c0.229,0.291,0.512,0.518,0.854,0.662c0.043,0.018,0.086,0.033,0.129,0.039c0.105,0.018,0.195-0.025,0.246-0.119
			c0.019-0.035,0.033-0.076,0.045-0.117c0.049-0.191,0.094-0.385,0.148-0.572c0.043-0.156,0.02-0.287-0.09-0.406
			c-0.057-0.065-0.109-0.137-0.158-0.207c-0.234-0.344-0.338-0.728-0.357-1.139c-0.018-0.355,0.016-0.709,0.104-1.057
			c0.193-0.772,0.588-1.42,1.209-1.924c0.633-0.512,1.365-0.76,2.172-0.805c0.291-0.018,0.584-0.006,0.873,0.035
			c0.354,0.053,0.693,0.143,1.016,0.303c0.557,0.272,0.973,0.684,1.236,1.248c0.185,0.396,0.267,0.818,0.275,1.254
			c0.006,0.371-0.023,0.742-0.08,1.111c-0.059,0.402-0.156,0.797-0.303,1.18c-0.133,0.352-0.305,0.685-0.537,0.982
			c-0.158,0.207-0.34,0.385-0.559,0.529c-0.295,0.193-0.617,0.295-0.975,0.285c-0.232-0.008-0.453-0.068-0.65-0.195
			c-0.342-0.221-0.523-0.537-0.535-0.947c-0.005-0.143,0.021-0.283,0.057-0.422c0.094-0.359,0.205-0.715,0.314-1.07
			c0.1-0.33,0.199-0.658,0.271-0.994c0.045-0.221,0.07-0.438,0.053-0.664c-0.014-0.178-0.059-0.35-0.145-0.506
			c-0.105-0.191-0.256-0.328-0.455-0.41c-0.193-0.076-0.395-0.09-0.596-0.058c-0.262,0.041-0.479,0.164-0.668,0.342
			c-0.191,0.183-0.328,0.402-0.428,0.648c-0.111,0.273-0.166,0.557-0.174,0.853c-0.012,0.426,0.051,0.838,0.213,1.232
			c0.018,0.043,0.021,0.084,0.01,0.131c-0.086,0.361-0.17,0.723-0.256,1.086c-0.227,0.961-0.453,1.92-0.68,2.881
			c-0.088,0.363-0.139,0.731-0.154,1.104c-0.024,0.611,0.014,1.221,0.104,1.828c0.002,0.018,0.004,0.033,0.01,0.053
			c0.024,0.066,0.098,0.088,0.15,0.043c0.023-0.019,0.043-0.047,0.062-0.07c0.26-0.336,0.5-0.686,0.713-1.051
			c0.209-0.355,0.393-0.723,0.529-1.111c0.08-0.232,0.137-0.473,0.197-0.711c0.133-0.514,0.264-1.029,0.396-1.545
			c0.004-0.02,0.012-0.037,0.025-0.078c0.02,0.031,0.031,0.045,0.039,0.059c0.074,0.117,0.162,0.219,0.266,0.307
			c0.379,0.33,0.822,0.506,1.314,0.557c0.279,0.029,0.561,0.008,0.84-0.037c0.418-0.066,0.807-0.203,1.174-0.41
			c0.5-0.279,0.908-0.66,1.244-1.123c0.354-0.484,0.604-1.021,0.773-1.594c0.201-0.676,0.285-1.369,0.279-2.072
			c-0.008-0.438-0.08-0.863-0.229-1.277C111.932,3.472,111.356,2.754,110.555,2.215z"/>
		<g>
			<path fill="#888888" d="M76.069,2.153c0.168,0,0.338,0,0.508,0c0.1,0.016,0.201,0.029,0.301,0.049
				c0.658,0.121,1.221,0.422,1.691,0.898c0.027,0.031,0.055,0.037,0.092,0.029c0.559-0.117,1.096-0.305,1.602-0.568
				c0.107-0.057,0.213-0.115,0.334-0.178c-0.25,0.74-0.699,1.307-1.363,1.728c0.459-0.059,0.885-0.156,1.301-0.303
				c0.16-0.059,0.32-0.119,0.48-0.182c0,0.004,0,0.008,0,0.014c-0.012,0.014-0.025,0.023-0.035,0.039
				c-0.404,0.586-0.889,1.094-1.461,1.516c-0.047,0.035-0.064,0.07-0.062,0.127c0.029,0.748-0.037,1.49-0.205,2.221
				c-0.412,1.795-1.26,3.352-2.586,4.639c-0.59,0.572-1.258,1.047-1.99,1.424c-1.191,0.609-2.463,0.906-3.795,0.953
				c-0.676,0.022-1.342-0.027-2.005-0.154c-1.097-0.211-2.116-0.615-3.061-1.207c-0.016-0.01-0.029-0.021-0.055-0.041
				c1.715,0.17,3.244-0.256,4.604-1.291c-0.662-0.031-1.264-0.232-1.793-0.629c-0.529-0.396-0.898-0.912-1.113-1.557
				c0.471,0.084,0.926,0.072,1.396-0.051c-1.777-0.4-2.557-2.01-2.48-3.107c0.428,0.229,0.879,0.363,1.367,0.373
				c-0.66-0.478-1.098-1.107-1.277-1.902c-0.176-0.797-0.057-1.551,0.344-2.264c1.695,1.998,3.836,3.094,6.453,3.273
				c-0.004-0.033-0.004-0.053-0.01-0.074c-0.085-0.407-0.09-0.818-0.014-1.228c0.236-1.26,1.232-2.254,2.496-2.492
				C75.842,2.185,75.954,2.171,76.069,2.153z"/>
		</g>
	</g>
	<path fill="#888888" d="M11.74,2.103H4.064c-1.334,0-2.418,1.084-2.418,2.42v7.676c0,1.332,1.084,2.416,2.418,2.416h7.676
		c1.336,0,2.418-1.084,2.418-2.416V7.076V4.523C14.158,3.187,13.076,2.103,11.74,2.103z M12.433,3.544h0.279v2.121l-2.115,0.006
		L10.59,3.55L12.433,3.544z M6.117,7.076C6.517,6.519,7.17,6.16,7.902,6.16c0.736,0,1.387,0.363,1.787,0.916
		c0.26,0.361,0.416,0.805,0.416,1.283c0,1.215-0.99,2.203-2.203,2.203c-1.215,0-2.201-0.988-2.201-2.203
		C5.703,7.88,5.855,7.437,6.117,7.076z M12.939,12.199c0,0.662-0.537,1.197-1.199,1.197H4.064c-0.662,0-1.199-0.535-1.199-1.197
		V7.076h1.869c-0.16,0.396-0.252,0.83-0.252,1.283c0,1.887,1.533,3.422,3.42,3.422s3.422-1.535,3.422-3.422
		c0-0.453-0.092-0.887-0.252-1.283h1.867V12.199z"/>
</g>
</svg>
