<?xml version="1.0" encoding="utf-8"?>
<!-- Generator: Adobe Illustrator 17.0.0, SVG Export Plug-In . SVG Version: 6.00 Build 0)  -->
<!DOCTYPE svg PUBLIC "-//W3C//DTD SVG 1.1//EN" "http://www.w3.org/Graphics/SVG/1.1/DTD/svg11.dtd">
<svg version="1.1" id="圖層_1" xmlns="http://www.w3.org/2000/svg" xmlns:xlink="http://www.w3.org/1999/xlink" x="0px" y="0px"
	 width="18px" height="18px" viewBox="0 0 18 18" enable-background="new 0 0 18 18" xml:space="preserve">
<g>
	<circle fill="#67AA68" cx="9.046" cy="9" r="7.886"/>
	<g>
		<path fill="#67AA68" d="M9.046,0.5c-4.694,0-8.5,3.806-8.5,8.5c0,4.694,3.806,8.5,8.5,8.5c4.695,0,8.5-3.806,8.5-8.5
			C17.546,4.306,13.741,0.5,9.046,0.5z M9.046,15.914c-3.819,0-6.914-3.096-6.914-6.914s3.096-6.914,6.914-6.914
			c3.819,0,6.915,3.096,6.915,6.914S12.865,15.914,9.046,15.914z"/>
		<path fill="#FFFFFF" d="M13.603,6.272c-0.293-0.293-0.768-0.293-1.061,0L7.573,11.24L5.55,9.218c-0.293-0.293-0.768-0.293-1.061,0
			c-0.293,0.293-0.293,0.768,0,1.061l2.475,2.475c0.167,0.167,0.391,0.227,0.609,0.204c0.218,0.023,0.442-0.038,0.608-0.204
			l5.421-5.421C13.895,7.039,13.895,6.564,13.603,6.272z"/>
	</g>
</g>
</svg>
