<?xml version="1.0" encoding="utf-8"?>
<!-- Generator: Adobe Illustrator 17.0.0, SVG Export Plug-In . SVG Version: 6.00 Build 0)  -->
<!DOCTYPE svg PUBLIC "-//W3C//DTD SVG 1.1//EN" "http://www.w3.org/Graphics/SVG/1.1/DTD/svg11.dtd">
<svg version="1.1" id="圖層_1" xmlns="http://www.w3.org/2000/svg" xmlns:xlink="http://www.w3.org/1999/xlink" x="0px" y="0px"
	 width="75px" height="75px" viewBox="0 0 75 75" enable-background="new 0 0 75 75" xml:space="preserve">
<g>
	<path fill="#FFFFFF" d="M37.862,51.576c-3.049,0-6.098,0-9.147,0c-0.793,0-0.91-0.087-0.925-0.902
		c-0.025-1.397-0.014-2.795-0.015-4.192c-0.002-1.888-0.016-3.775,0.016-5.662c0.005-0.305,0.15-0.681,0.36-0.897
		c2.968-3.038,5.957-6.054,8.943-9.074c0.525-0.531,0.722-0.531,1.259-0.002c3.061,3.021,6.124,6.042,9.172,9.076
		c0.17,0.169,0.31,0.46,0.311,0.695c0.019,3.267,0.012,6.534,0.011,9.8c0,0.181-0.021,0.363-0.017,0.544
		c0.011,0.457-0.184,0.625-0.659,0.622C44.069,51.567,40.966,51.576,37.862,51.576z M46.702,50.434
		c0.016-0.12,0.03-0.173,0.03-0.227c0.002-3.013,0.01-6.027-0.012-9.04c-0.002-0.228-0.179-0.501-0.352-0.675
		c-2.756-2.764-5.524-5.515-8.29-8.269c-0.127-0.126-0.261-0.244-0.398-0.372c-0.076,0.066-0.133,0.108-0.182,0.159
		c-2.788,2.859-5.58,5.715-8.353,8.589c-0.161,0.167-0.244,0.477-0.245,0.722c-0.017,2.85-0.011,5.7-0.009,8.55
		c0,0.19,0.017,0.38,0.026,0.564C34.881,50.434,40.775,50.434,46.702,50.434z"/>
	<path fill="#FFFFFF" d="M32.249,28.144c0,1.011,0,1.978,0,3.056c0.216-0.2,0.348-0.313,0.469-0.436
		c1.43-1.445,2.858-2.892,4.29-4.336c0.58-0.585,0.804-0.584,1.392,0.007c4.331,4.347,8.66,8.695,12.989,13.043
		c0.102,0.103,0.263,0.201,0.283,0.32c0.038,0.226,0.083,0.568-0.039,0.674c-0.153,0.134-0.483,0.137-0.712,0.086
		c-0.168-0.037-0.303-0.245-0.443-0.386c-4.101-4.115-8.201-8.23-12.298-12.347c-0.139-0.14-0.257-0.301-0.404-0.476
		c-0.189,0.18-0.322,0.3-0.447,0.427c-4.075,4.14-8.149,8.28-12.224,12.421c-0.051,0.052-0.103,0.103-0.152,0.156
		c-0.288,0.306-0.619,0.508-0.983,0.157c-0.38-0.366-0.129-0.685,0.155-0.977c1.115-1.144,2.239-2.28,3.333-3.443
		c0.175-0.186,0.301-0.5,0.303-0.756c0.023-2.214,0.023-4.429,0.006-6.644c-0.003-0.439,0.09-0.581,0.574-0.562
		C29.608,28.177,30.878,28.144,32.249,28.144z M28.908,34.533c0.712-0.69,1.378-1.328,2.033-1.978
		c0.081-0.08,0.142-0.219,0.144-0.332c0.011-0.958,0.006-1.916,0.006-2.891c-0.761,0-1.469,0-2.183,0
		C28.908,31.083,28.908,32.782,28.908,34.533z"/>
</g>
<polygon fill="none" stroke="#FFFFFF" stroke-width="2" stroke-miterlimit="10" points="16.21,27.204 37.744,14.771 59.279,27.204 
	59.279,52.069 37.744,64.502 16.21,52.069 "/>
<g>
	<rect x="36.562" y="46.251" fill="#FFFFFF" width="2.473" height="4.869"/>
	<path fill="#FFFFFF" d="M37.744,31.368c0,0-8.6,9.229-9.368,9.326V51.12h6.186v-4.869v-1.938v-0.062h6.473v0.062v1.938v4.869h6.163
		V40.694L37.744,31.368z"/>
</g>
</svg>
