<?xml version="1.0" encoding="utf-8"?>
<!-- Generator: Adobe Illustrator 17.0.0, SVG Export Plug-In . SVG Version: 6.00 Build 0)  -->
<!DOCTYPE svg PUBLIC "-//W3C//DTD SVG 1.1//EN" "http://www.w3.org/Graphics/SVG/1.1/DTD/svg11.dtd">
<svg version="1.1" id="圖層_1" xmlns="http://www.w3.org/2000/svg" xmlns:xlink="http://www.w3.org/1999/xlink" x="0px" y="0px"
	 width="75px" height="75px" viewBox="0 0 75 75" enable-background="new 0 0 75 75" xml:space="preserve">
<polygon fill="none" stroke="#FFFFFF" stroke-width="2" stroke-miterlimit="10" points="15.966,27.067 37.5,14.634 59.034,27.067 
	59.034,51.933 37.5,64.366 15.966,51.933 "/>
<circle fill="#FFFFFF" cx="37.5" cy="32.729" r="4.312"/>
<path fill="#FFFFFF" d="M39.69,37.708H37.5h-2.19c0,0-5.196,0.25-5.196,6.208v5.833H37.5h7.386v-5.833
	C44.886,37.958,39.69,37.708,39.69,37.708z"/>
<circle fill="#FFFFFF" cx="28.252" cy="34.868" r="3.285"/>
<path fill="#FFFFFF" d="M28.989,44.066c0-2.569,0.813-4.196,1.818-5.231c-0.514-0.155-0.887-0.174-0.887-0.174h-1.668h-1.668
	c0,0-3.958,0.19-3.958,4.729v4.443h5.626h0.737V44.066z"/>
<circle fill="#FFFFFF" cx="46.748" cy="34.868" r="3.285"/>
<path fill="#FFFFFF" d="M46.011,44.066c0-2.569-0.813-4.196-1.818-5.231c0.514-0.155,0.887-0.174,0.887-0.174h1.668h1.668
	c0,0,3.958,0.19,3.958,4.729v4.443h-5.626h-0.737V44.066z"/>
</svg>
