<?xml version="1.0" encoding="utf-8"?>
<!-- Generator: Adobe Illustrator 17.0.0, SVG Export Plug-In . SVG Version: 6.00 Build 0)  -->
<!DOCTYPE svg PUBLIC "-//W3C//DTD SVG 1.1//EN" "http://www.w3.org/Graphics/SVG/1.1/DTD/svg11.dtd">
<svg version="1.1" id="圖層_1" xmlns="http://www.w3.org/2000/svg" xmlns:xlink="http://www.w3.org/1999/xlink" x="0px" y="0px"
	 width="75px" height="75px" viewBox="0 0 75 75" enable-background="new 0 0 75 75" xml:space="preserve">
<g>
	<path fill="#FFFFFF" d="M24.986,31.22c8.375,0,16.669,0,24.995,0c0.075,0.712,0.08,1.268-0.578,1.826
		c-3.324,2.82-6.583,5.715-9.865,8.583c-1.386,1.211-2.6,1.25-3.977,0.059c-3.402-2.945-6.777-5.922-10.189-8.856
		C24.814,32.353,25.074,31.811,24.986,31.22z"/>
	<path fill="#FFFFFF" d="M25.058,48.501c-0.205-0.818,0.01-1.35,0.702-1.871c2.377-1.79,4.686-3.671,7.022-5.518
		c0.041-0.032,0.086-0.058,0.179-0.12c0.55,0.477,1.129,0.937,1.66,1.446c1.766,1.692,3.967,1.768,5.942-0.141
		c0.469-0.453,0.979-0.866,1.498-1.321c1.229,0.967,2.439,1.916,3.646,2.868c1.196,0.944,2.385,1.898,3.585,2.837
		c0.832,0.651,0.847,0.666,0.667,1.819C41.67,48.501,33.377,48.501,25.058,48.501z"/>
	<path fill="#FFFFFF" d="M32.043,40.182c-2.349,1.858-4.637,3.667-6.997,5.534c0-3.904,0-7.724,0-11.626
		C27.374,36.117,29.673,38.119,32.043,40.182z"/>
	<path fill="#FFFFFF" d="M49.973,45.721c-2.361-1.867-4.649-3.676-7.001-5.536c2.34-2.04,4.641-4.046,7.001-6.104
		C49.973,37.971,49.973,41.793,49.973,45.721z"/>
</g>
<polygon fill="none" stroke="#FFFFFF" stroke-width="2" stroke-miterlimit="10" points="15.966,26.902 37.5,14.469 59.034,26.902 
	59.034,51.768 37.5,64.201 15.966,51.768 "/>
</svg>
