<?xml version="1.0" encoding="utf-8"?>
<!-- Generator: Adobe Illustrator 17.0.0, SVG Export Plug-In . SVG Version: 6.00 Build 0)  -->
<!DOCTYPE svg PUBLIC "-//W3C//DTD SVG 1.1//EN" "http://www.w3.org/Graphics/SVG/1.1/DTD/svg11.dtd">
<svg version="1.1" id="圖層_1" xmlns="http://www.w3.org/2000/svg" xmlns:xlink="http://www.w3.org/1999/xlink" x="0px" y="0px"
	 width="75px" height="75px" viewBox="0 0 75 75" enable-background="new 0 0 75 75" xml:space="preserve">
<polygon fill="none" stroke="#FFFFFF" stroke-width="2" stroke-miterlimit="10" points="15.966,27.204 37.5,14.771 59.034,27.204 
	59.034,52.069 37.5,64.502 15.966,52.069 "/>
<g>
	<path fill="#FFFFFF" d="M49.196,29.625l-14.031-2.818c-1-0.193-1.344,1.026-1.344,1.026l-4.708,12.625
		c-0.167,0.833,0.646,1.104,0.646,1.104c0.958,0.188,1.188-0.656,1.188-0.656l4.229-11.469c0.25-0.729,0.708-0.5,0.708-0.5
		l11.281,2.25c0.75,0.094,0.719,0.469,0.719,0.469l-5.125,14.469c-1.438,3.906-3.5,3.969-3.5,3.969
		c-3.507,0.113-2.969-4.062-2.969-4.062l-11.062-4.5c-1.344,3.844,2.125,5.938,2.125,5.938l8.312,3.844
		c4.188,1.594,6.469-0.656,6.469-0.656c1.625-1.375,3.104-5.573,3.104-5.573l4.74-13.708C50.446,29.75,49.196,29.625,49.196,29.625z
		"/>
	<circle fill="#FFFFFF" cx="36.677" cy="33.156" r="0.969"/>
	<circle fill="#FFFFFF" cx="35.135" cy="37.156" r="0.969"/>
	<circle fill="#FFFFFF" cx="33.573" cy="40.99" r="0.969"/>
	<path fill="#FFFFFF" d="M37.061,37.704c-0.162,0.51,0.188,1.076,0.782,1.265l3.884,1.234c0,0,0,0,0,0s0,0,0,0l0.159,0.051
		l0.009-0.028c0.537,0.095,1.054-0.143,1.2-0.605c0.147-0.461-0.138-0.954-0.631-1.186l0.009-0.028l-4.044-1.285
		C37.836,36.934,37.223,37.194,37.061,37.704z"/>
	<path fill="#FFFFFF" d="M43.944,34.116l-3.933-1.068c-0.601-0.163-1.202,0.123-1.343,0.639c-0.14,0.516,0.233,1.067,0.835,1.231
		l4.095,1.112l0.008-0.028c0.54,0.072,1.046-0.188,1.173-0.655c0.127-0.467-0.178-0.948-0.681-1.159l0.008-0.028L43.944,34.116z"/>
	<path fill="#FFFFFF" d="M36.851,41.063c-0.588-0.206-1.208,0.036-1.385,0.541s0.156,1.081,0.744,1.287l3.846,1.348c0,0,0,0,0,0
		s0,0,0,0l0.158,0.055l0.01-0.027c0.533,0.111,1.057-0.112,1.217-0.569c0.16-0.457-0.11-0.958-0.596-1.205l0.01-0.027L36.851,41.063
		z"/>
</g>
</svg>
