<?xml version="1.0" encoding="utf-8"?>
<!-- Generator: Adobe Illustrator 17.0.0, SVG Export Plug-In . SVG Version: 6.00 Build 0)  -->
<!DOCTYPE svg PUBLIC "-//W3C//DTD SVG 1.1//EN" "http://www.w3.org/Graphics/SVG/1.1/DTD/svg11.dtd">
<svg version="1.1" id="圖層_1" xmlns="http://www.w3.org/2000/svg" xmlns:xlink="http://www.w3.org/1999/xlink" x="0px" y="0px"
	 width="75px" height="75px" viewBox="0 0 75 75" enable-background="new 0 0 75 75" xml:space="preserve">
<g>
	<g>
		<path fill="#FFFFFF" d="M37.874,45.897c0-2.201,0.002-4.402-0.004-6.603c-0.001-0.199,0.054-0.313,0.234-0.417
			c3.812-2.192,7.619-4.392,11.428-6.59c0.361-0.208,0.404-0.185,0.404,0.233c0.002,4.392,0.001,8.784,0.007,13.176
			c0,0.218-0.083,0.332-0.264,0.437c-3.827,2.205-7.651,4.416-11.476,6.625c-0.28,0.161-0.328,0.132-0.328-0.2
			c-0.001-2.22-0.001-4.441-0.001-6.661H37.874z"/>
		<path fill="#FFFFFF" d="M37.975,52.898c-0.144,0-0.144-0.189-0.144-0.34c-0.001-1.677-0.001-3.354-0.001-5.031l0-1.586
			l-0.001-0.045l0-1.406c0-1.703,0.001-3.465-0.004-5.197c-0.001-0.224,0.069-0.348,0.257-0.456c3.028-1.742,6.105-3.518,9.08-5.235
			l2.348-1.355c0.151-0.087,0.246-0.134,0.318-0.134c0.153,0,0.154,0.198,0.154,0.407l0.001,3.308
			c0.001,3.234,0.001,6.578,0.006,9.868c0,0.223-0.08,0.357-0.287,0.476c-2.844,1.639-5.686,3.281-8.528,4.922l-2.947,1.702
			C38.1,52.87,38.029,52.898,37.975,52.898z M37.919,45.852l0.001,0.045l0,1.631c0,1.677,0,3.354,0.001,5.031
			c0,0.208,0.022,0.25,0.054,0.25c0.046,0,0.134-0.048,0.206-0.089l2.947-1.702c2.842-1.642,5.684-3.284,8.528-4.922
			c0.179-0.103,0.242-0.207,0.241-0.398c-0.005-3.289-0.006-6.634-0.006-9.868l-0.001-3.308c0-0.237-0.016-0.317-0.064-0.317
			c-0.051,0-0.146,0.049-0.273,0.122l-2.348,1.355c-2.975,1.717-6.051,3.493-9.08,5.235c-0.159,0.091-0.212,0.187-0.211,0.378
			c0.005,1.732,0.005,3.494,0.004,5.197L37.919,45.852z"/>
	</g>
	<g>
		<path fill="#FFFFFF" d="M32.435,41.589c0-1.743,0-3.432,0-5.157c0.097,0.042,0.167,0.065,0.23,0.102
			c1.414,0.815,2.825,1.635,4.243,2.444c0.17,0.097,0.221,0.209,0.221,0.396c-0.005,4.422-0.004,8.844-0.005,13.266
			c0,0.345-0.049,0.371-0.349,0.198c-3.825-2.21-7.648-4.423-11.476-6.629c-0.177-0.102-0.242-0.218-0.242-0.419
			c0.005-4.393,0.004-8.785,0.006-13.178c0-0.42,0.045-0.446,0.403-0.239c1.143,0.66,2.281,1.326,3.428,1.978
			c0.183,0.104,0.23,0.226,0.229,0.422c-0.006,1.546-0.006,3.091,0.002,4.637c0.001,0.112,0.037,0.28,0.114,0.326
			C30.28,40.354,31.332,40.954,32.435,41.589z"/>
		<path fill="#FFFFFF" d="M37.022,52.988c-0.066,0-0.152-0.042-0.271-0.111l-2.577-1.49c-2.916-1.686-5.931-3.428-8.898-5.139
			c-0.19-0.11-0.265-0.238-0.264-0.458c0.004-3.181,0.004-6.362,0.005-9.543l0.001-3.635c0-0.211,0-0.41,0.156-0.41
			c0.072,0,0.17,0.048,0.315,0.132c0.368,0.212,0.736,0.426,1.103,0.639c0.761,0.441,1.547,0.897,2.325,1.339
			c0.211,0.12,0.253,0.265,0.252,0.461c-0.006,1.527-0.006,3.087,0.002,4.637c0.001,0.111,0.038,0.256,0.092,0.287
			c0.832,0.493,1.66,0.969,2.537,1.473l0.592,0.34v-5.148l0.063,0.028c0.033,0.014,0.063,0.026,0.09,0.038
			c0.054,0.022,0.101,0.041,0.145,0.066c0.426,0.246,0.852,0.492,1.277,0.737c0.971,0.561,1.975,1.141,2.965,1.706
			c0.175,0.1,0.243,0.222,0.243,0.435c-0.003,3.091-0.004,6.182-0.004,9.273l-0.001,3.992
			C37.168,52.795,37.168,52.988,37.022,52.988z M25.173,32.293c-0.049,0-0.065,0.081-0.066,0.32l-0.001,3.635
			c-0.001,3.181-0.001,6.362-0.005,9.543c0,0.187,0.057,0.286,0.219,0.38c2.968,1.71,5.983,3.453,8.898,5.139l2.577,1.49
			c0.084,0.049,0.177,0.099,0.226,0.099c0.034,0,0.056-0.044,0.056-0.258l0.001-3.992c0-3.091,0.001-6.182,0.004-9.274
			c0-0.183-0.05-0.273-0.198-0.357c-0.99-0.565-1.995-1.146-2.966-1.707c-0.426-0.246-0.851-0.492-1.277-0.737
			c-0.039-0.022-0.081-0.039-0.134-0.061C32.5,36.508,32.49,36.504,32.48,36.5v5.167l-0.727-0.418
			c-0.877-0.504-1.705-0.98-2.538-1.473c-0.099-0.058-0.135-0.25-0.136-0.364c-0.007-1.55-0.008-3.111-0.002-4.638
			c0.001-0.198-0.051-0.295-0.206-0.383c-0.778-0.442-1.565-0.898-2.326-1.34c-0.367-0.213-0.735-0.426-1.103-0.639
			C25.335,32.35,25.228,32.293,25.173,32.293z"/>
	</g>
	<g>
		<path fill="#FFFFFF" d="M32.964,35.658c1.114-0.644,2.213-1.279,3.312-1.914c2.817-1.627,5.636-3.252,8.449-4.886
			c0.191-0.111,0.33-0.12,0.525-0.006c1.323,0.777,2.653,1.54,3.981,2.309c0.318,0.184,0.32,0.244,0.014,0.42
			C45.422,33.79,41.598,36,37.769,38.201c-0.104,0.06-0.293,0.087-0.388,0.033c-1.453-0.824-2.898-1.663-4.344-2.5
			C33.021,35.724,33.01,35.706,32.964,35.658z"/>
		<path fill="#FFFFFF" d="M37.519,38.308c-0.064,0-0.119-0.012-0.16-0.035c-1.221-0.692-2.455-1.407-3.649-2.098l-0.695-0.402
			c-0.016-0.009-0.027-0.022-0.044-0.04c-0.009-0.011-0.022-0.025-0.039-0.043l-0.039-0.041l5.057-2.922
			c2.215-1.279,4.505-2.601,6.754-3.907c0.22-0.128,0.363-0.127,0.571-0.006c0.927,0.545,1.874,1.091,2.79,1.62
			c0.397,0.229,0.794,0.458,1.191,0.688c0.175,0.101,0.264,0.168,0.264,0.254c0,0.084-0.088,0.15-0.249,0.244l-0.588,0.339
			c-3.567,2.061-7.256,4.191-10.889,6.28C37.719,38.281,37.614,38.308,37.519,38.308z M33.035,35.669
			c0.001,0.001,0.002,0.002,0.003,0.004c0.01,0.011,0.018,0.02,0.021,0.022l0.695,0.402c1.194,0.691,2.428,1.406,3.648,2.097
			c0.07,0.04,0.249,0.022,0.344-0.033c3.632-2.088,7.321-4.219,10.889-6.28l0.588-0.339c0.061-0.035,0.204-0.118,0.204-0.166
			c0-0.05-0.153-0.139-0.219-0.177c-0.397-0.23-0.794-0.459-1.19-0.688c-0.916-0.529-1.863-1.076-2.79-1.621
			c-0.179-0.105-0.289-0.105-0.48,0.006c-2.249,1.306-4.539,2.628-6.754,3.907L33.035,35.669z"/>
	</g>
	<g>
		<path fill="#FFFFFF" d="M41.583,26.708c-0.994,0.573-1.953,1.12-2.906,1.676c-2.971,1.735-5.939,3.474-8.913,5.203
			c-0.092,0.054-0.268,0.057-0.36,0.005c-1.225-0.693-2.442-1.4-3.659-2.106c-0.293-0.17-0.291-0.235,0.005-0.406
			c3.834-2.214,7.668-4.428,11.506-6.635c0.091-0.053,0.255-0.079,0.337-0.033C38.91,25.159,40.22,25.92,41.583,26.708z"/>
		<path fill="#FFFFFF" d="M29.577,33.674c-0.076,0-0.146-0.015-0.195-0.043c-1.154-0.653-2.32-1.329-3.448-1.983l-0.211-0.123
			c-0.152-0.088-0.241-0.156-0.241-0.241c0-0.085,0.09-0.154,0.246-0.244l0.314-0.181c3.667-2.117,7.459-4.307,11.192-6.454
			c0.066-0.038,0.163-0.063,0.247-0.063c0.055,0,0.1,0.01,0.135,0.03c1.071,0.607,2.12,1.214,3.23,1.856l0.828,0.479l-0.068,0.039
			c-0.314,0.181-0.625,0.36-0.933,0.537c-0.679,0.39-1.321,0.759-1.972,1.139c-0.947,0.553-1.894,1.107-2.841,1.66
			c-1.989,1.163-4.046,2.365-6.072,3.543C29.734,33.657,29.658,33.674,29.577,33.674z M37.48,24.433
			c-0.068,0-0.149,0.02-0.202,0.051c-3.733,2.147-7.525,4.336-11.192,6.454l-0.314,0.181c-0.055,0.032-0.201,0.116-0.201,0.166
			c0,0.049,0.142,0.132,0.196,0.163l0.211,0.123c1.128,0.654,2.294,1.33,3.448,1.983c0.074,0.042,0.241,0.039,0.316-0.004
			c2.026-1.178,4.083-2.38,6.072-3.543c0.947-0.554,1.894-1.107,2.841-1.66c0.652-0.381,1.294-0.749,1.973-1.14
			c0.286-0.164,0.574-0.33,0.865-0.498L40.8,26.307c-1.11-0.642-2.159-1.249-3.229-1.856C37.551,24.44,37.518,24.433,37.48,24.433z"
			/>
	</g>
	<g>
		<path fill="#FFFFFF" d="M31.629,39.829c-0.579-0.334-1.095-0.626-1.604-0.932c-0.057-0.034-0.098-0.142-0.098-0.215
			c-0.006-1.34-0.002-2.68-0.009-4.02c-0.001-0.223,0.12-0.329,0.292-0.428c2.278-1.311,4.555-2.626,6.831-3.94
			c1.659-0.958,3.319-1.913,4.972-2.88c0.204-0.119,0.355-0.126,0.557,0.001c0.452,0.283,0.922,0.539,1.424,0.829
			c-0.615,0.358-1.186,0.692-1.759,1.023c-3.444,1.988-6.888,3.978-10.337,5.959c-0.208,0.119-0.277,0.254-0.275,0.486
			c0.01,1.232,0.005,2.465,0.005,3.697C31.629,39.526,31.629,39.642,31.629,39.829z"/>
		<path fill="#FFFFFF" d="M31.674,39.907L31.21,39.64c-0.421-0.242-0.818-0.47-1.208-0.704c-0.071-0.043-0.12-0.166-0.12-0.254
			c-0.003-0.662-0.004-1.323-0.004-1.985c-0.001-0.678-0.001-1.357-0.005-2.035c-0.001-0.263,0.162-0.379,0.315-0.467
			c2.278-1.311,4.555-2.626,6.831-3.94l0.911-0.526c1.333-0.769,2.71-1.564,4.061-2.354c0.231-0.135,0.389-0.133,0.604,0.001
			c0.319,0.199,0.644,0.384,0.988,0.579c0.143,0.081,0.287,0.163,0.435,0.248l0.067,0.039l-0.646,0.376
			c-0.402,0.234-0.791,0.461-1.18,0.686l-1.217,0.703c-2.988,1.725-6.078,3.509-9.12,5.257c-0.188,0.108-0.254,0.225-0.252,0.447
			c0.008,0.917,0.006,1.849,0.005,2.75c0,0.316-0.001,0.632-0.001,0.948V39.907z M42.296,27.367c-0.077,0-0.16,0.027-0.26,0.086
			c-1.351,0.79-2.729,1.585-4.062,2.354l-0.911,0.526c-2.276,1.315-4.553,2.629-6.831,3.94c-0.171,0.099-0.271,0.194-0.27,0.388
			c0.003,0.678,0.004,1.357,0.005,2.036c0.001,0.662,0.001,1.323,0.004,1.985c0,0.065,0.039,0.155,0.077,0.177
			c0.389,0.234,0.786,0.462,1.207,0.703l0.329,0.189v-0.342c0-0.316,0-0.632,0.001-0.948c0.001-0.901,0.002-1.833-0.005-2.749
			c-0.002-0.254,0.081-0.402,0.298-0.526c3.042-1.748,6.132-3.532,9.12-5.257l1.217-0.703c0.389-0.225,0.778-0.451,1.18-0.685
			l0.512-0.298c-0.124-0.071-0.247-0.141-0.367-0.209c-0.345-0.196-0.671-0.381-0.991-0.581
			C42.453,27.394,42.373,27.367,42.296,27.367z"/>
	</g>
</g>
<polygon fill="none" stroke="#FFFFFF" stroke-width="2" stroke-miterlimit="10" points="15.966,27.204 37.5,14.771 59.034,27.204 
	59.034,52.069 37.5,64.502 15.966,52.069 "/>
</svg>
