<?xml version="1.0" encoding="utf-8"?>
<!-- Generator: Adobe Illustrator 17.0.0, SVG Export Plug-In . SVG Version: 6.00 Build 0)  -->
<!DOCTYPE svg PUBLIC "-//W3C//DTD SVG 1.1//EN" "http://www.w3.org/Graphics/SVG/1.1/DTD/svg11.dtd">
<svg version="1.1" id="圖層_1" xmlns="http://www.w3.org/2000/svg" xmlns:xlink="http://www.w3.org/1999/xlink" x="0px" y="0px"
	 width="75px" height="75px" viewBox="0 0 75 75" enable-background="new 0 0 75 75" xml:space="preserve">
<polygon fill="none" stroke="#FFFFFF" stroke-width="2" stroke-miterlimit="10" points="15.966,27.204 37.5,14.771 59.034,27.204 
	59.034,52.069 37.5,64.502 15.966,52.069 "/>
<g>
	<path fill="#FFFFFF" d="M22.202,43.531c0.833-0.132,1.667-0.263,2.5-0.395c0.058-0.009,0.116-0.023,0.172-0.042
		c0.403-0.132,1.055-1.985,0.815-2.335c-0.466-0.678-0.939-1.352-1.386-1.994c0.601-0.586,1.171-1.142,1.787-1.743
		c0.572,0.408,1.233,0.862,1.872,1.345c0.284,0.215,0.536,0.286,0.847,0.076c0.145-0.098,0.309-0.209,0.474-0.229
		c0.974-0.116,1.231-0.756,1.281-1.616c0.032-0.544,0.164-1.083,0.255-1.642c0.82,0,1.603,0,2.45,0
		c0.151,0.818,0.297,1.642,0.455,2.463c0.118,0.613,1.928,1.32,2.438,0.957c0.625-0.444,1.247-0.891,1.872-1.335
		c0.03-0.021,0.074-0.024,0.089-0.029c0.564,0.578,1.121,1.147,1.709,1.75c-0.445,0.637-0.946,1.316-1.397,2.027
		c-0.109,0.172-0.098,0.457-0.06,0.676c0.035,0.204,0.239,0.382,0.264,0.584c0.116,0.925,0.713,1.178,1.536,1.229
		c0.564,0.035,1.121,0.171,1.71,0.266c0,0.827,0,1.625,0,2.459c-0.823,0.15-1.633,0.298-2.442,0.444
		c-0.077,0.014-0.159,0.009-0.233,0.032c-0.361,0.111-1.019,1.993-0.799,2.303c0.487,0.689,0.983,1.371,1.455,2.027
		c-0.591,0.582-1.161,1.143-1.772,1.744c-0.61-0.426-1.287-0.928-1.999-1.373c-0.184-0.115-0.482-0.081-0.722-0.06
		c-0.145,0.013-0.275,0.178-0.422,0.196c-1.149,0.142-1.342,0.974-1.431,1.911c-0.044,0.468-0.148,0.93-0.225,1.394
		c-0.826,0-1.652,0-2.478,0c-0.095-0.561-0.248-1.12-0.271-1.684c-0.035-0.87-0.348-1.435-1.275-1.558
		c-0.184-0.024-0.363-0.15-0.524-0.259c-0.27-0.182-0.48-0.136-0.737,0.054c-0.672,0.498-1.37,0.963-2.086,1.461
		c-0.489-0.502-0.941-0.966-1.392-1.431c-0.095-0.098-0.187-0.2-0.308-0.329c0.318-0.448,0.599-0.927,0.96-1.333
		c0.573-0.643,0.868-1.267,0.252-2.051c-0.137-0.175-0.127-0.459-0.247-0.654c-0.096-0.156-0.272-0.328-0.44-0.364
		c-0.844-0.179-1.697-0.315-2.547-0.467C22.202,45.183,22.202,44.357,22.202,43.531z M32.087,41.373
		c-1.918-0.009-3.443,1.507-3.444,3.423c-0.001,1.897,1.558,3.462,3.438,3.452c1.857-0.011,3.394-1.542,3.431-3.418
		C35.549,42.957,33.988,41.382,32.087,41.373z"/>
	<path fill="#FFFFFF" d="M41.201,25.35c0.579-0.237,1.134-0.463,1.716-0.701c0.31,0.498,0.618,0.953,0.883,1.432
		c0.191,0.345,0.437,0.42,0.829,0.479c0.952,0.143,1.445-0.297,1.795-1.084c0.118-0.266,0.31-0.499,0.504-0.803
		c0.555,0.227,1.108,0.453,1.72,0.703c-0.128,0.583-0.235,1.156-0.384,1.719c-0.089,0.338,0.022,0.533,0.225,0.818
		c0.585,0.823,1.265,0.804,2.136,0.552c1.031-0.299,0.811-0.371,1.236,0.639c0.366,0.87,0.36,0.873-0.441,1.378
		c-0.033,0.021-0.067,0.041-0.1,0.062c-1.106,0.696-1.15,0.765-1.008,2.053c0.017,0.154,0.187,0.326,0.331,0.424
		c0.501,0.34,1.021,0.651,1.57,0.995c-0.247,0.592-0.477,1.146-0.719,1.725c-0.652-0.146-1.259-0.302-1.874-0.406
		c-0.172-0.029-0.37,0.097-0.556,0.154c-0.016,0.005-0.025,0.031-0.041,0.041c-0.918,0.573-0.915,1.37-0.57,2.266
		c0.09,0.233,0.113,0.492,0.179,0.795c-0.567,0.236-1.121,0.466-1.723,0.716c-0.335-0.529-0.633-1.06-0.996-1.542
		c-0.135-0.179-0.409-0.294-0.641-0.349c-1.011-0.24-1.591,0.283-1.975,1.154c-0.108,0.246-0.295,0.457-0.468,0.717
		c-0.576-0.242-1.129-0.474-1.711-0.718c0.135-0.593,0.24-1.15,0.395-1.693c0.099-0.346-0.027-0.541-0.226-0.826
		c-0.579-0.831-1.296-0.845-2.137-0.555c-0.257,0.089-0.534,0.119-0.858,0.187c-0.127-0.286-0.256-0.564-0.376-0.847
		c-0.114-0.27-0.217-0.544-0.346-0.871c0.482-0.303,0.947-0.625,1.44-0.895c0.335-0.184,0.4-0.418,0.453-0.789
		c0.13-0.923-0.249-1.468-1.046-1.834c-0.28-0.129-0.527-0.332-0.828-0.527c0.245-0.586,0.476-1.14,0.721-1.724
		c0.605,0.139,1.183,0.244,1.742,0.412c0.343,0.103,0.504-0.058,0.762-0.236c0.849-0.588,0.878-1.319,0.55-2.183
		C41.268,25.939,41.257,25.657,41.201,25.35z M44.882,34.599c1.457,0.006,2.617-1.134,2.637-2.588
		c0.02-1.442-1.142-2.637-2.581-2.655c-1.463-0.018-2.681,1.176-2.679,2.628C42.261,33.423,43.434,34.593,44.882,34.599z"/>
</g>
</svg>
