<?xml version="1.0" encoding="utf-8"?>
<!-- Generator: Adobe Illustrator 17.0.0, SVG Export Plug-In . SVG Version: 6.00 Build 0)  -->
<!DOCTYPE svg PUBLIC "-//W3C//DTD SVG 1.1//EN" "http://www.w3.org/Graphics/SVG/1.1/DTD/svg11.dtd">
<svg version="1.1" id="圖層_1" xmlns="http://www.w3.org/2000/svg" xmlns:xlink="http://www.w3.org/1999/xlink" x="0px" y="0px"
	 width="60px" height="40px" viewBox="0 0 60 40" enable-background="new 0 0 60 40" xml:space="preserve">
<g>
	<g>
		<path fill="#9FA0A0" d="M1.044,10.06c0-0.349,0-0.699,0-1.048C1.07,8.96,1.106,8.91,1.122,8.854
			c0.305-1.06,0.985-1.737,2.057-2.008c6.82-1.726,13.64-3.449,20.459-5.177c1.033-0.262,2.061-0.546,3.091-0.819
			c0.349,0,0.699,0,1.048,0c0.026,0.023,0.049,0.059,0.08,0.067c1.099,0.3,1.773,1.007,2.046,2.109
			c0.913,3.694,1.828,7.387,2.743,11.08c0.331,1.337,0.663,2.674,0.999,4.029c0.985,0,1.945,0.03,2.903-0.007
			c1.667-0.063,2.858,1.365,2.848,2.854c-0.034,5.116-0.036,10.232,0.001,15.347c0.011,1.573-1.276,2.88-2.875,2.873
			C28.561,39.17,20.6,39.17,12.639,39.204c-1.521,0.007-2.926-1.152-2.909-2.922c0.029-2.969,0.008-5.939,0.008-8.909
			c0-0.146,0-0.292,0-0.462c-0.561,0.138-1.078,0.267-1.597,0.392c-1.464,0.352-2.911-0.517-3.277-1.988
			C3.812,21.093,2.77,16.867,1.72,12.644C1.506,11.78,1.27,10.921,1.044,10.06z M9.738,25.238c0-0.18,0-0.341,0-0.502
			c0-1.26-0.007-2.52,0.005-3.78c0.003-0.283,0.051-0.571,0.119-0.846c0.241-0.972,1.244-1.989,2.753-1.983
			c6.201,0.023,12.402,0.01,18.603,0.01c0.242,0,0.484,0,0.738,0c-0.012-0.091-0.014-0.128-0.022-0.163
			c-1.2-4.852-2.4-9.705-3.604-14.556c-0.195-0.787-0.728-1.089-1.522-0.888C19.093,4.484,11.379,6.439,3.665,8.394
			C2.821,8.608,2.518,9.127,2.731,9.99c0.789,3.199,1.576,6.399,2.368,9.598c0.436,1.762,0.874,3.524,1.322,5.283
			c0.16,0.629,0.678,1.002,1.236,0.881C8.346,25.602,9.028,25.415,9.738,25.238z M11.413,29.481
			c-0.019,0.05-0.035,0.073-0.035,0.095c-0.003,2.333-0.011,4.666,0,6.998c0.002,0.5,0.419,0.913,0.92,0.978
			c0.209,0.027,0.423,0.027,0.635,0.027c7.847,0.001,15.695,0,23.542,0c0.88,0,1.296-0.422,1.296-1.312
			c-0.001-2.146-0.001-4.292-0.002-6.437c0-0.109-0.011-0.219-0.019-0.349C28.962,29.481,20.196,29.481,11.413,29.481z
			 M37.743,24.43c-8.804,0-17.58,0-26.351,0c0,1.149,0,2.267,0,3.406c8.791,0,17.558,0,26.351,0
			C37.743,26.7,37.743,25.584,37.743,24.43z M37.755,22.772c0-0.705,0.018-1.367-0.006-2.026c-0.018-0.49-0.361-0.863-0.843-0.965
			c-0.193-0.041-0.395-0.046-0.594-0.046c-5.664-0.002-11.329-0.002-16.993-0.002c-2.221,0-4.442-0.002-6.663,0
			c-0.679,0.001-1.204,0.321-1.254,0.882c-0.064,0.712-0.015,1.434-0.015,2.157C20.186,22.772,28.952,22.772,37.755,22.772z"/>
		<path fill="#9FA0A0" d="M31.483,33.052c0.674,0,1.347-0.005,2.021,0.001c0.519,0.005,0.854,0.315,0.863,0.78
			c0.01,0.472-0.306,0.827-0.816,0.834c-1.372,0.017-2.745,0.017-4.117-0.001c-0.492-0.006-0.844-0.402-0.822-0.841
			c0.023-0.454,0.379-0.769,0.886-0.772C30.16,33.049,30.822,33.052,31.483,33.052z"/>
		<g>
			<path fill="#9FA0A0" d="M26.728,0.85l-0.277,0.911l3.3,0.795C28.991,0.322,26.728,0.85,26.728,0.85z"/>
			<path fill="#9FA0A0" d="M2.107,7.344C0.974,8.292,1.001,9.295,1.001,9.295c0,0,0,0,0,0C0.98,9.518,0.986,9.774,1.044,10.06
				c0,0,0.663-0.262,0.662-0.847C2.151,8.72,2.107,7.344,2.107,7.344z"/>
		</g>
	</g>
	<g>
		<circle fill="#67A466" cx="50.388" cy="30.704" r="7.886"/>
		<g>
			<path fill="#67A466" d="M50.388,22.204c-4.694,0-8.5,3.806-8.5,8.5s3.806,8.5,8.5,8.5c4.695,0,8.5-3.806,8.5-8.5
				S55.083,22.204,50.388,22.204z M50.388,37.618c-3.819,0-6.914-3.096-6.914-6.914s3.096-6.914,6.914-6.914
				c3.819,0,6.915,3.096,6.915,6.914S54.207,37.618,50.388,37.618z"/>
			<path fill="#FFFFFF" d="M54.945,27.976c-0.293-0.293-0.768-0.293-1.061,0l-4.969,4.968l-2.023-2.022
				c-0.293-0.293-0.768-0.293-1.061,0c-0.293,0.293-0.293,0.768,0,1.061l2.475,2.475c0.167,0.167,0.391,0.227,0.609,0.204
				c0.218,0.023,0.442-0.038,0.608-0.204l5.421-5.421C55.237,28.743,55.237,28.268,54.945,27.976z"/>
		</g>
	</g>
	<path fill="#9FA0A0" d="M26.229,5.903l-3.851,0.874c-0.454,0.103-0.738,0.554-0.635,1.008l0.874,3.851
		c0.103,0.454,0.554,0.738,1.008,0.635l3.851-0.874c0.454-0.103,0.738-0.554,0.635-1.008l-0.874-3.851
		C27.134,6.084,26.683,5.8,26.229,5.903z M26.891,9.891c0.064,0.28-0.112,0.558-0.392,0.622l-2.376,0.539
		c-0.28,0.063-0.558-0.112-0.622-0.392l-0.539-2.376c-0.063-0.28,0.112-0.558,0.392-0.622l2.376-0.539
		c0.28-0.063,0.558,0.112,0.622,0.392L26.891,9.891z"/>
</g>
<g>
	<g>
		<g>
			<path fill="#9FA0A0" d="M1.105,10.18c0-0.349,0-0.699,0-1.048c0.026-0.052,0.062-0.102,0.078-0.158
				c0.305-1.06,0.985-1.737,2.057-2.008c6.82-1.726,13.64-3.449,20.459-5.177c1.033-0.262,2.061-0.546,3.091-0.819
				c0.349,0,0.699,0,1.048,0c0.026,0.023,0.049,0.059,0.08,0.067c1.099,0.3,1.773,1.007,2.046,2.109
				c0.913,3.694,1.828,7.387,2.743,11.08c0.331,1.337,0.663,2.674,0.999,4.029c0.985,0,1.945,0.03,2.903-0.007
				c1.667-0.063,2.858,1.365,2.848,2.854c-0.034,5.116-0.036,10.232,0.001,15.347c0.011,1.573-1.276,2.88-2.875,2.873
				c-7.961-0.034-15.921-0.034-23.882,0.001c-1.521,0.007-2.926-1.152-2.909-2.922c0.029-2.969,0.008-5.939,0.008-8.909
				c0-0.146,0-0.292,0-0.462c-0.561,0.138-1.078,0.267-1.597,0.392c-1.464,0.352-2.911-0.517-3.277-1.988
				c-1.052-4.223-2.093-8.449-3.143-12.673C1.566,11.899,1.331,11.041,1.105,10.18z M9.799,25.357c0-0.18,0-0.341,0-0.502
				c0-1.26-0.007-2.52,0.005-3.78c0.003-0.283,0.051-0.571,0.119-0.846c0.241-0.972,1.244-1.989,2.753-1.983
				c6.201,0.023,12.402,0.01,18.603,0.01c0.242,0,0.484,0,0.738,0c-0.012-0.091-0.014-0.128-0.022-0.163
				c-1.2-4.852-2.4-9.705-3.604-14.556c-0.195-0.787-0.728-1.089-1.522-0.888C19.154,4.603,11.44,6.558,3.726,8.513
				c-0.845,0.214-1.147,0.733-0.935,1.596c0.789,3.199,1.576,6.399,2.368,9.598c0.436,1.762,0.874,3.524,1.322,5.283
				c0.16,0.629,0.678,1.002,1.236,0.881C8.406,25.721,9.089,25.534,9.799,25.357z M11.473,29.6c-0.019,0.05-0.035,0.073-0.035,0.095
				c-0.003,2.333-0.011,4.666,0,6.998c0.002,0.5,0.419,0.913,0.92,0.978c0.209,0.027,0.423,0.027,0.635,0.027
				c7.847,0.001,15.695,0,23.542,0c0.88,0,1.296-0.422,1.296-1.312c-0.001-2.146-0.001-4.292-0.002-6.437
				c0-0.109-0.011-0.219-0.019-0.349C29.022,29.6,20.257,29.6,11.473,29.6z M37.803,24.549c-8.804,0-17.58,0-26.351,0
				c0,1.149,0,2.267,0,3.406c8.791,0,17.558,0,26.351,0C37.803,26.82,37.803,25.703,37.803,24.549z M37.816,22.891
				c0-0.705,0.018-1.367-0.006-2.026c-0.018-0.49-0.361-0.863-0.843-0.965c-0.193-0.041-0.395-0.046-0.594-0.046
				c-5.664-0.002-11.329-0.002-16.993-0.002c-2.221,0-4.442-0.002-6.663,0c-0.679,0.001-1.204,0.321-1.254,0.882
				c-0.064,0.712-0.015,1.434-0.015,2.157C20.247,22.891,29.013,22.891,37.816,22.891z"/>
			<path fill="#9FA0A0" d="M31.544,33.171c0.674,0,1.347-0.005,2.021,0.001c0.519,0.005,0.854,0.315,0.863,0.78
				c0.01,0.472-0.306,0.827-0.816,0.834c-1.372,0.017-2.745,0.017-4.117-0.001c-0.492-0.006-0.844-0.402-0.822-0.841
				c0.023-0.454,0.379-0.769,0.886-0.772C30.221,33.168,30.883,33.171,31.544,33.171z"/>
			<g>
				<path fill="#9FA0A0" d="M26.789,0.969L26.512,1.88l3.3,0.795C29.051,0.441,26.789,0.969,26.789,0.969z"/>
				<path fill="#9FA0A0" d="M2.168,7.463C1.035,8.411,1.062,9.414,1.062,9.414c0,0,0,0,0.001,0C1.041,9.637,1.047,9.893,1.105,10.18
					c0,0,0.663-0.262,0.662-0.847C2.212,8.839,2.168,7.463,2.168,7.463z"/>
			</g>
		</g>
		<g>
			<circle fill="#67A466" cx="50.449" cy="30.824" r="7.886"/>
			<g>
				<path fill="#67A466" d="M50.449,22.324c-4.694,0-8.5,3.806-8.5,8.5s3.806,8.5,8.5,8.5c4.695,0,8.5-3.806,8.5-8.5
					S55.144,22.324,50.449,22.324z M50.449,37.738c-3.819,0-6.914-3.096-6.914-6.914s3.096-6.914,6.914-6.914
					c3.819,0,6.915,3.096,6.915,6.914S54.268,37.738,50.449,37.738z"/>
				<path fill="#FFFFFF" d="M55.006,28.096c-0.293-0.293-0.768-0.293-1.061,0l-4.969,4.968l-2.023-2.022
					c-0.293-0.293-0.768-0.293-1.061,0c-0.293,0.293-0.293,0.768,0,1.061l2.475,2.475c0.167,0.167,0.391,0.227,0.609,0.204
					c0.218,0.023,0.442-0.038,0.608-0.204l5.421-5.421C55.298,28.863,55.298,28.388,55.006,28.096z"/>
			</g>
		</g>
		<path fill="#9FA0A0" d="M26.29,6.022l-3.851,0.874C21.985,6.999,21.7,7.45,21.803,7.904l0.874,3.851
			c0.103,0.454,0.554,0.738,1.008,0.635l3.851-0.874c0.454-0.103,0.738-0.554,0.635-1.008l-0.874-3.851
			C27.195,6.204,26.744,5.919,26.29,6.022z M26.952,10.01c0.064,0.28-0.112,0.558-0.392,0.622l-2.376,0.539
			c-0.28,0.063-0.558-0.112-0.622-0.392l-0.539-2.376c-0.063-0.28,0.112-0.558,0.392-0.622l2.376-0.539
			c0.28-0.063,0.558,0.112,0.622,0.392L26.952,10.01z"/>
	</g>
	<g>
		<circle fill="#CA201D" cx="50.449" cy="30.824" r="7.886"/>
		<path fill="#CA201D" d="M50.449,22.324c-4.694,0-8.5,3.806-8.5,8.5s3.806,8.5,8.5,8.5c4.695,0,8.5-3.806,8.5-8.5
			S55.144,22.324,50.449,22.324z M50.449,37.738c-3.819,0-6.914-3.096-6.914-6.914s3.095-6.914,6.914-6.914s6.915,3.096,6.915,6.914
			S54.268,37.738,50.449,37.738z"/>
		<g>
			<path fill="#FFFFFF" d="M47.254,35.01c-0.274,0.274-0.718,0.274-0.992,0l0,0c-0.274-0.274-0.274-0.718,0-0.992l7.381-7.381
				c0.274-0.274,0.718-0.274,0.992,0l0,0c0.274,0.274,0.274,0.718,0,0.992L47.254,35.01z"/>
			<path fill="#FFFFFF" d="M53.644,35.01c0.274,0.274,0.718,0.274,0.992,0l0,0c0.274-0.274,0.274-0.718,0-0.992l-7.382-7.38
				c-0.274-0.274-0.718-0.274-0.992,0l0,0c-0.274,0.274-0.274,0.718,0,0.992L53.644,35.01z"/>
		</g>
	</g>
</g>
<g>
	<g>
		<g>
			<path fill="#9FA0A0" d="M1.103,10.058c0-0.349,0-0.699,0-1.048C1.129,8.957,1.164,8.907,1.18,8.852
				c0.305-1.06,0.985-1.737,2.057-2.008c6.82-1.726,13.64-3.449,20.459-5.177c1.033-0.262,2.061-0.546,3.091-0.819
				c0.349,0,0.699,0,1.048,0c0.026,0.023,0.049,0.059,0.08,0.067c1.099,0.3,1.773,1.007,2.046,2.109
				c0.913,3.694,1.828,7.387,2.743,11.08c0.331,1.337,0.663,2.674,0.999,4.029c0.985,0,1.945,0.03,2.903-0.007
				c1.667-0.063,2.858,1.365,2.848,2.854c-0.034,5.116-0.036,10.232,0.001,15.347c0.011,1.573-1.276,2.88-2.875,2.873
				c-7.961-0.034-15.921-0.034-23.882,0.001c-1.521,0.007-2.926-1.152-2.909-2.922c0.029-2.969,0.008-5.939,0.008-8.909
				c0-0.146,0-0.292,0-0.462c-0.561,0.138-1.078,0.267-1.597,0.392c-1.464,0.352-2.911-0.517-3.277-1.988
				c-1.052-4.223-2.093-8.449-3.143-12.673C1.564,11.778,1.329,10.919,1.103,10.058z M9.797,25.236c0-0.18,0-0.341,0-0.502
				c0-1.26-0.007-2.52,0.005-3.78c0.003-0.283,0.051-0.571,0.119-0.846c0.241-0.972,1.244-1.989,2.753-1.983
				c6.201,0.023,12.402,0.01,18.603,0.01c0.242,0,0.484,0,0.738,0c-0.012-0.091-0.014-0.128-0.022-0.163
				c-1.2-4.852-2.4-9.705-3.604-14.556c-0.195-0.787-0.728-1.089-1.522-0.888C19.152,4.482,11.438,6.436,3.724,8.392
				C2.879,8.606,2.576,9.124,2.789,9.988c0.789,3.199,1.576,6.399,2.368,9.598c0.436,1.762,0.874,3.524,1.322,5.283
				c0.16,0.629,0.678,1.002,1.236,0.881C8.404,25.599,9.086,25.413,9.797,25.236z M11.471,29.479
				c-0.019,0.05-0.035,0.073-0.035,0.095c-0.003,2.333-0.011,4.666,0,6.998c0.002,0.5,0.419,0.913,0.92,0.978
				c0.209,0.027,0.423,0.027,0.635,0.027c7.847,0.001,15.695,0,23.542,0c0.88,0,1.296-0.422,1.296-1.312
				c-0.001-2.146-0.001-4.292-0.002-6.437c0-0.109-0.011-0.219-0.019-0.349C29.02,29.479,20.255,29.479,11.471,29.479z
				 M37.801,24.427c-8.804,0-17.58,0-26.351,0c0,1.149,0,2.267,0,3.406c8.791,0,17.558,0,26.351,0
				C37.801,26.698,37.801,25.581,37.801,24.427z M37.814,22.77c0-0.705,0.018-1.367-0.006-2.026
				c-0.018-0.49-0.361-0.863-0.843-0.965c-0.193-0.041-0.395-0.046-0.594-0.046c-5.664-0.002-11.329-0.002-16.993-0.002
				c-2.221,0-4.442-0.002-6.663,0c-0.679,0.001-1.204,0.321-1.254,0.882c-0.064,0.712-0.015,1.434-0.015,2.157
				C20.245,22.77,29.011,22.77,37.814,22.77z"/>
			<path fill="#9FA0A0" d="M31.542,33.049c0.674,0,1.347-0.005,2.021,0.001c0.519,0.005,0.854,0.315,0.863,0.78
				c0.01,0.472-0.306,0.827-0.816,0.834c-1.372,0.017-2.745,0.017-4.117-0.001c-0.492-0.006-0.844-0.402-0.822-0.841
				c0.023-0.454,0.379-0.769,0.886-0.772C30.219,33.046,30.88,33.05,31.542,33.049z"/>
			<g>
				<path fill="#9FA0A0" d="M26.787,0.848L26.51,1.758l3.3,0.795C29.049,0.319,26.787,0.848,26.787,0.848z"/>
				<path fill="#9FA0A0" d="M2.166,7.341C1.033,8.289,1.059,9.292,1.059,9.292c0,0,0,0,0,0c-0.021,0.222-0.015,0.478,0.043,0.765
					c0,0,0.663-0.262,0.662-0.847C2.21,8.717,2.166,7.341,2.166,7.341z"/>
			</g>
		</g>
		<g>
			<circle fill="#67A466" cx="50.447" cy="30.702" r="7.886"/>
			<g>
				<path fill="#67A466" d="M50.447,22.202c-4.694,0-8.5,3.806-8.5,8.5s3.806,8.5,8.5,8.5c4.695,0,8.5-3.806,8.5-8.5
					S55.142,22.202,50.447,22.202z M50.447,37.616c-3.819,0-6.914-3.096-6.914-6.914s3.096-6.914,6.914-6.914
					c3.819,0,6.915,3.096,6.915,6.914S54.266,37.616,50.447,37.616z"/>
				<path fill="#FFFFFF" d="M55.004,27.974c-0.293-0.293-0.768-0.293-1.061,0l-4.969,4.968l-2.023-2.022
					c-0.293-0.293-0.768-0.293-1.061,0c-0.293,0.293-0.293,0.768,0,1.061l2.475,2.475c0.167,0.167,0.391,0.227,0.609,0.204
					c0.218,0.023,0.442-0.038,0.608-0.204l5.421-5.421C55.296,28.741,55.296,28.266,55.004,27.974z"/>
			</g>
		</g>
		<path fill="#9FA0A0" d="M26.288,5.9l-3.851,0.874c-0.454,0.103-0.738,0.554-0.635,1.008l0.874,3.851
			c0.103,0.454,0.554,0.738,1.008,0.635l3.851-0.874c0.454-0.103,0.738-0.554,0.635-1.008l-0.874-3.851
			C27.193,6.082,26.741,5.798,26.288,5.9z M26.949,9.888c0.064,0.28-0.112,0.558-0.392,0.622l-2.376,0.539
			c-0.28,0.063-0.558-0.112-0.622-0.392l-0.539-2.376c-0.063-0.28,0.112-0.558,0.392-0.622l2.376-0.539
			c0.28-0.063,0.558,0.112,0.622,0.392L26.949,9.888z"/>
	</g>
	<g>
		<circle fill="#DF8F1F" cx="50.446" cy="30.702" r="8.505"/>
		<g>
			<path fill="#FFFFFF" d="M51.622,31.334c0,0.503-0.408,0.911-0.911,0.911l0,0c-0.503,0-0.911-0.408-0.911-0.911v-4.737
				c0-0.503,0.408-0.911,0.911-0.911l0,0c0.503,0,0.911,0.408,0.911,0.911V31.334z"/>
			<circle fill="#FFFFFF" cx="50.648" cy="34.743" r="0.973"/>
		</g>
	</g>
</g>
</svg>
