<?xml version="1.0" encoding="utf-8"?>
<!-- Generator: Adobe Illustrator 17.0.0, SVG Export Plug-In . SVG Version: 6.00 Build 0)  -->
<!DOCTYPE svg PUBLIC "-//W3C//DTD SVG 1.1//EN" "http://www.w3.org/Graphics/SVG/1.1/DTD/svg11.dtd">
<svg version="1.1" id="圖層_1" xmlns="http://www.w3.org/2000/svg" xmlns:xlink="http://www.w3.org/1999/xlink" x="0px" y="0px"
	 width="22px" height="22px" viewBox="0 0 22 22" enable-background="new 0 0 22 22" xml:space="preserve">
<g>
	<path d="M14.197,13.602c0,0.328-0.266,0.595-0.595,0.595H8.398c-0.328,0-0.595-0.266-0.595-0.595V8.398
		c0-0.328,0.266-0.595,0.595-0.595h5.204c0.328,0,0.595,0.266,0.595,0.595V13.602z"/>
	<polygon points="21.366,5.667 20.533,5.651 20.609,1.646 16.52,1.646 16.52,0.813 21.458,0.813 	"/>
	<rect x="17.695" y="0.019" transform="matrix(0.7071 0.7071 -0.7071 0.7071 8.2407 -11.5902)" width="0.833" height="8.267"/>
	<polygon points="0.846,5.667 0.754,0.813 5.692,0.813 5.692,1.646 1.603,1.646 1.678,5.651 	"/>
	<rect x="-0.032" y="3.736" transform="matrix(0.7071 0.7071 -0.7071 0.7071 4.1372 -1.6836)" width="8.267" height="0.833"/>
	<polygon points="21.458,21.211 16.52,21.211 16.52,20.378 20.609,20.378 20.533,16.373 21.366,16.357 	"/>
	<rect x="13.978" y="17.455" transform="matrix(0.7071 0.7071 -0.7071 0.7071 17.9417 -7.5719)" width="8.267" height="0.833"/>
	<polygon points="5.692,21.211 0.754,21.211 0.846,16.357 1.678,16.373 1.603,20.378 5.692,20.378 	"/>
	<rect x="3.685" y="13.738" transform="matrix(0.7071 0.7071 -0.7071 0.7071 13.8382 2.3347)" width="0.833" height="8.267"/>
</g>
</svg>
